{"title":"Fifty.Shades.of.Black.2016.BRRip.480p.x264.AAC-VYTO [P2PDL]","uid":14238447,"size":360723902,"categoryP":"video","categoryS":"movies","magnet":"?xt=urn:btih:e512d195347647661777c4531cd8d5c1ab6f83ee&amp;dn=Fifty.Shades.of.Black.2016.BRRip.480p.x264.AAC-VYTO+%5BP2PDL%5D&amp;tr=udp%3A%2F%2Ftracker.leechers-paradise.org%3A6969&amp;tr=udp%3A%2F%2Fzer0day.ch%3A1337&amp;tr=udp%3A%2F%2Fopen.demonii.com%3A1337&amp;tr=udp%3A%2F%2Ftracker.coppersurfer.tk%3A6969&amp;tr=udp%3A%2F%2Fexodus.desync.com%3A6969","seeders":1,"leechers":1,"uploader":"VYTOP2PDL","files":7,"time":1460117343,"description":"____    ____ ____    ____ .___________.  ______   \r\n     /   /      /   / |           | /  __    \r\n    /   /      /   /  `---|  |----`|  |  |  | \r\n        /     _    _/       |  |     |  |  |  | \r\n       /        |  |         |  |     |  `--'  | \r\n    __/         |__|         |__|      ______/  \r\n                                                  \r\nPresenting Small Encodes with quality for years!\r\n                                                                                                   \r\n                                                                                                   \r\n\r\n\r\nFifty.Shades.of.Black.2016.BRRip.480p.x264.AAC-VYTO\r\n\r\n\r\nGenre: Comedy  \nhttp://www.imdb.com/title/tt4667094/\r\n\r\n\r\nFormat                                   : MPEG-4\r\nFile size                                : 337 MiB\r\nDuration                                 : 1h 31mn\r\nOverall bit rate                         : 512 Kbps\r\n\r\nVideo\r\nFormat                                   : AVC\r\nBit rate                                 : 469 Kbps\r\nWidth                                    : 720 pixels\r\nHeight                                   : 304 pixels\r\nDisplay aspect ratio                     : 2.35:1\r\nFrame rate mode                          : Constant\r\nFrame rate                               : 23.976 fps\r\nBit depth                                : 8 bits\r\nStream size                              : 308 MiB (92%)\r\nWriting library                          : x264\r\n\r\nAudio\r\nFormat                                   : AAC\r\nBit rate                                 : 39.9 Kbps\r\nChannel(s)                               : 2 channels\r\nChannel positions                        : Front: L R\r\nSampling rate                            : 48.0 KHz\r\nStream size                              : 26.3 MiB (8%)\r\nLanguage                                 : English\r\n\r\nSubtitle                                 : Yes (English)\r\n\r\nScreen Shot: (Click to view)\r\n \nhttp://ititli.com/XMV \nhttp://ititli.com/XMt \nhttp://ititli.com/XML \nhttp://ititli.com/XMd \nhttp://ititli.com/XM0 \nhttp://ititli.com/XMA \nhttp://ititli.com/XMl \nhttp://ititli.com/XMm \nhttp://ititli.com/XMx\r\n\r\n----------------------------------------------------------------------------------------------------\r\n\r\n\r\nEncoder Notes: Looking For Early Access To Anything You Can Provide WEBDL, DVDScr, DVDR, BluRay,\r\nDirect Audio, Music Releases and Seedboxes. If You Got anything to offer please contact us.\r\n\r\nSupport us by donating BC - 1FgwdzPsd1y25Gea8wP1qni35uGCtmkRCD\r\n\r\nFind us and join us!","torrent":{"xt":"urn:btih:e512d195347647661777c4531cd8d5c1ab6f83ee","amp;dn":"Fifty.Shades.of.Black.2016.BRRip.480p.x264.AAC-VYTO+%5BP2PDL%5D","amp;tr":["udp%3A%2F%2Ftracker.leechers-paradise.org%3A6969","udp%3A%2F%2Fzer0day.ch%3A1337","udp%3A%2F%2Fopen.demonii.com%3A1337","udp%3A%2F%2Ftracker.coppersurfer.tk%3A6969","udp%3A%2F%2Fexodus.desync.com%3A6969"],"infoHash":"e512d195347647661777c4531cd8d5c1ab6f83ee","infoHashBuffer":{"type":"Buffer","data":[229,18,209,149,52,118,71,102,23,119,196,83,28,216,213,193,171,111,131,238]},"announce":[],"urlList":[]}}